<svg width="67" height="18" viewBox="0 0 67 18" fill="none" xmlns="http://www.w3.org/2000/svg">
<path d="M0.758523 15V6.27273H4.2017C4.8608 6.27273 5.4233 6.39062 5.8892 6.62642C6.35795 6.85937 6.71449 7.19034 6.95881 7.61932C7.20597 8.04545 7.32955 8.54687 7.32955 9.12358C7.32955 9.70312 7.20455 10.2017 6.95455 10.6193C6.70455 11.0341 6.34233 11.3523 5.8679 11.5739C5.39631 11.7955 4.82528 11.9062 4.15483 11.9062H1.84943V10.4233H3.85653C4.20881 10.4233 4.50142 10.375 4.73438 10.2784C4.96733 10.1818 5.14063 10.0369 5.25426 9.84375C5.37074 9.65057 5.42898 9.41051 5.42898 9.12358C5.42898 8.83381 5.37074 8.58949 5.25426 8.39062C5.14063 8.19176 4.96591 8.04119 4.73011 7.93892C4.49716 7.83381 4.20313 7.78125 3.84801 7.78125H2.60369V15H0.758523ZM5.47159 11.0284L7.64062 15H5.60369L3.48153 11.0284H5.47159ZM16.6534 10.6364C16.6534 11.5881 16.473 12.3977 16.1122 13.0653C15.7543 13.733 15.2656 14.2429 14.6463 14.5952C14.0298 14.9446 13.3366 15.1193 12.5668 15.1193C11.7912 15.1193 11.0952 14.9432 10.4787 14.5909C9.86222 14.2386 9.375 13.7287 9.01705 13.0611C8.65909 12.3935 8.48011 11.5852 8.48011 10.6364C8.48011 9.68466 8.65909 8.875 9.01705 8.20739C9.375 7.53977 9.86222 7.03125 10.4787 6.68182C11.0952 6.32955 11.7912 6.15341 12.5668 6.15341C13.3366 6.15341 14.0298 6.32955 14.6463 6.68182C15.2656 7.03125 15.7543 7.53977 16.1122 8.20739C16.473 8.875 16.6534 9.68466 16.6534 10.6364ZM14.7827 10.6364C14.7827 10.0199 14.6903 9.5 14.5057 9.0767C14.3239 8.65341 14.0668 8.33239 13.7344 8.11364C13.402 7.89489 13.0128 7.78551 12.5668 7.78551C12.1207 7.78551 11.7315 7.89489 11.3991 8.11364C11.0668 8.33239 10.8082 8.65341 10.6236 9.0767C10.4418 9.5 10.3509 10.0199 10.3509 10.6364C10.3509 11.2528 10.4418 11.7727 10.6236 12.196C10.8082 12.6193 11.0668 12.9403 11.3991 13.1591C11.7315 13.3778 12.1207 13.4872 12.5668 13.4872C13.0128 13.4872 13.402 13.3778 13.7344 13.1591C14.0668 12.9403 14.3239 12.6193 14.5057 12.196C14.6903 11.7727 14.7827 11.2528 14.7827 10.6364ZM18.0202 15V6.27273H21.5146C22.1566 6.27273 22.6921 6.3679 23.1211 6.55824C23.5501 6.74858 23.8725 7.01278 24.0884 7.35085C24.3043 7.68608 24.4123 8.07244 24.4123 8.50994C24.4123 8.85085 24.3441 9.15057 24.2077 9.40909C24.0714 9.66477 23.8839 9.875 23.6452 10.0398C23.4094 10.2017 23.1396 10.3168 22.8356 10.3849V10.4702C23.168 10.4844 23.479 10.5781 23.7688 10.7514C24.0614 10.9247 24.2987 11.1676 24.4805 11.4801C24.6623 11.7898 24.7532 12.1591 24.7532 12.5881C24.7532 13.0511 24.6381 13.4645 24.408 13.8281C24.1808 14.1889 23.8441 14.4744 23.3981 14.6847C22.9521 14.8949 22.4023 15 21.7489 15H18.0202ZM19.8654 13.4915H21.3697C21.8839 13.4915 22.2589 13.3935 22.4947 13.1974C22.7305 12.9986 22.8484 12.7344 22.8484 12.4048C22.8484 12.1634 22.7901 11.9503 22.6737 11.7656C22.5572 11.581 22.391 11.4361 22.1751 11.331C21.962 11.2259 21.7077 11.1733 21.4123 11.1733H19.8654V13.4915ZM19.8654 9.92472H21.2333C21.4862 9.92472 21.7106 9.88068 21.9066 9.79261C22.1055 9.7017 22.2617 9.57386 22.3754 9.40909C22.4918 9.24432 22.5501 9.04688 22.5501 8.81676C22.5501 8.50142 22.4379 8.24716 22.2134 8.05398C21.9918 7.8608 21.6765 7.7642 21.2674 7.7642H19.8654V9.92472ZM33.9737 10.6364C33.9737 11.5881 33.7933 12.3977 33.4325 13.0653C33.0746 13.733 32.5859 14.2429 31.9666 14.5952C31.3501 14.9446 30.657 15.1193 29.8871 15.1193C29.1115 15.1193 28.4155 14.9432 27.799 14.5909C27.1825 14.2386 26.6953 13.7287 26.3374 13.0611C25.9794 12.3935 25.8004 11.5852 25.8004 10.6364C25.8004 9.68466 25.9794 8.875 26.3374 8.20739C26.6953 7.53977 27.1825 7.03125 27.799 6.68182C28.4155 6.32955 29.1115 6.15341 29.8871 6.15341C30.657 6.15341 31.3501 6.32955 31.9666 6.68182C32.5859 7.03125 33.0746 7.53977 33.4325 8.20739C33.7933 8.875 33.9737 9.68466 33.9737 10.6364ZM32.103 10.6364C32.103 10.0199 32.0107 9.5 31.826 9.0767C31.6442 8.65341 31.3871 8.33239 31.0547 8.11364C30.7223 7.89489 30.3331 7.78551 29.8871 7.78551C29.4411 7.78551 29.0518 7.89489 28.7195 8.11364C28.3871 8.33239 28.1286 8.65341 27.9439 9.0767C27.7621 9.5 27.6712 10.0199 27.6712 10.6364C27.6712 11.2528 27.7621 11.7727 27.9439 12.196C28.1286 12.6193 28.3871 12.9403 28.7195 13.1591C29.0518 13.3778 29.4411 13.4872 29.8871 13.4872C30.3331 13.4872 30.7223 13.3778 31.0547 13.1591C31.3871 12.9403 31.6442 12.6193 31.826 12.196C32.0107 11.7727 32.103 11.2528 32.103 10.6364ZM35.3406 15V6.27273H38.7837C39.4428 6.27273 40.0053 6.39062 40.4712 6.62642C40.94 6.85937 41.2965 7.19034 41.5408 7.61932C41.788 8.04545 41.9116 8.54687 41.9116 9.12358C41.9116 9.70312 41.7866 10.2017 41.5366 10.6193C41.2866 11.0341 40.9244 11.3523 40.4499 11.5739C39.9783 11.7955 39.4073 11.9062 38.7369 11.9062H36.4315V10.4233H38.4386C38.7908 10.4233 39.0835 10.375 39.3164 10.2784C39.5494 10.1818 39.7227 10.0369 39.8363 9.84375C39.9528 9.65057 40.011 9.41051 40.011 9.12358C40.011 8.83381 39.9528 8.58949 39.8363 8.39062C39.7227 8.19176 39.5479 8.04119 39.3121 7.93892C39.0792 7.83381 38.7852 7.78125 38.43 7.78125H37.1857V15H35.3406ZM40.0536 11.0284L42.2227 15H40.1857L38.0636 11.0284H40.0536ZM43.2156 15V6.27273H49.0962V7.79403H45.0607V9.87358H48.7937V11.3949H45.0607V13.4787H49.1133V15H43.2156ZM57.8629 6.27273V15H56.2692L52.4723 9.5071H52.4084V15H50.5632V6.27273H52.1825L55.9496 11.7614H56.0263V6.27273H57.8629ZM59.055 7.79403V6.27273H66.2227V7.79403H63.5508V15H61.7269V7.79403H59.055Z" fill="white"/>
<circle cx="25.5" cy="2.5" r="2.5" fill="white"/>
</svg>
